Coordinates
version=1
nRows=16
nColumns=36
inDegrees=yes

Units are S.I. units (second, meters, Newtons, ...)
If the header above contains a line with 'inDegrees', this indicates whether rotational values are in degrees (yes) or radians (no).

endheader
time	pelvis_tilt	pelvis_list	pelvis_rotation	pelvis_tx	pelvis_ty	pelvis_tz	hip_flexion_r	hip_adduction_r	hip_rotation_r	knee_angle_r	knee_angle_r_beta	ankle_angle_r	subtalar_angle_r	mtp_angle_r	hip_flexion_l	hip_adduction_l	hip_rotation_l	knee_angle_l	knee_angle_l_beta	ankle_angle_l	subtalar_angle_l	mtp_angle_l	lumbar_extension	lumbar_bending	lumbar_rotation	arm_flex_r	arm_add_r	arm_rot_r	elbow_flex_r	pro_sup_r	arm_flex_l	arm_add_l	arm_rot_l	elbow_flex_l	pro_sup_l
     15.00000000	     -6.31183511	      1.32291060	     -1.74347534	      0.85724716	      1.01506513	      0.87534689	      0.77062757	     -2.19324373	      3.34126340	     32.44209340	      0.56622135	      7.22127091	    -11.58164189	     -7.49999987	     27.79877584	     -1.68699899	     -6.80539582	     24.74992429	      0.43196767	      4.09418465	     -0.34151389	     -7.49999987	     -0.01983620	      2.90211605	      6.73596266	      2.24798308	    -10.08526827	      0.86947585	     18.50128784	     70.21063511	      0.13655017	     -5.61352060	     -1.56134681	     16.18141199	     65.40230525
     15.01666670	     -6.20511742	      1.85233515	     -2.01219760	      0.85629937	      1.01645539	      0.87311997	      3.00922278	     -2.65522988	      4.43344847	     37.69080042	      0.65782857	      2.56212994	    -13.39701976	     -7.49999987	     26.52044935	     -1.09349530	     -7.33960713	     24.46767165	      0.42704143	      4.97069128	     -0.79577240	     -7.49999987	     -0.01505311	      2.15925870	      6.40716028	      2.08755469	     -9.75140051	      0.86309377	     17.65375609	     70.19251655	      0.86351702	     -5.80765839	     -1.62308796	     16.24990371	     65.55039835
     15.03333330	     -6.41447187	      2.19423713	     -2.25519092	      0.85607142	      1.01645666	      0.87143956	      5.81685570	     -2.74224291	      5.54024017	     42.92234504	      0.74913624	     -2.90824845	    -15.37430445	     -7.49999987	     25.61052752	     -0.77059829	     -8.01517263	     24.17631970	      0.42195638	      6.07727369	     -0.80695274	     -7.49999987	      0.30153098	      1.62633628	      6.24156506	      1.84825746	     -9.35118577	      0.81076180	     16.41279096	     70.11694371	      1.58760129	     -5.97978521	     -1.79604456	     16.67697763	     65.88062517
     15.05000000	     -6.32369980	      2.81444483	     -2.51582809	      0.85765973	      1.01597412	      0.87001038	      8.42723498	     -3.16674228	      6.36997112	     47.86286246	      0.83536454	     -7.27455616	    -15.97645843	     -7.49999987	     24.35287807	     -0.16343544	     -8.75685663	     23.74352872	      0.41440275	      6.84687530	     -1.05507394	     -7.49999987	      0.13055442	      0.73072769	      5.89244092	      1.59931869	     -8.92192692	      0.77194776	     15.86686660	     70.07498852	      2.30552165	     -6.34649914	     -1.86368323	     17.20308625	     66.04172871
     15.06666670	     -6.26963138	      3.23861261	     -2.68892885	      0.86089502	      1.01596102	      0.86795206	     10.91072658	     -3.41397226	      6.94458678	     51.98321255	      0.90727821	    -10.52748119	    -16.12195628	     -7.49999987	     23.26999474	      0.24468963	     -9.30451616	     23.61849301	      0.41222047	      7.69875169	     -1.35558498	     -7.49999987	     -0.01172727	      0.03515242	      5.64053099	      1.28907326	     -8.53225696	      0.68565313	     15.19763320	     70.03109958	      3.01419499	     -6.72443250	     -1.92729443	     17.85345026	     66.20089333
     15.08333330	     -6.39603487	      3.56586324	     -2.78256965	      0.86470877	      1.01687275	      0.86556298	     13.33083398	     -3.63043105	      7.27210028	     55.14415091	      0.96244700	    -12.39422145	    -16.07353691	     -7.49999987	     22.35401002	      0.57227798	     -9.71465239	     23.55988478	      0.41119756	      8.42268028	     -1.55641079	     -7.49999987	      0.16434886	     -0.49558989	      5.40021107	      0.92180843	     -8.15486496	      0.26000970	     14.32544904	     69.52029276	      3.39483322	     -7.08586242	     -2.32004971	     18.89730730	     66.21104155
     15.10000000	     -6.49012456	      3.81333912	     -2.73114258	      0.86787108	      1.01807339	      0.86327171	     15.53093246	     -3.80822813	      7.38830754	     57.45706595	      1.00281498	    -13.12979526	    -16.80978419	     -7.49999987	     21.26953776	      0.92412684	     -9.87253462	     23.35917024	      0.40769443	      9.01420942	     -1.75984497	     -7.49999987	      0.32112872	     -0.92890424	      4.95679031	      0.44047297	     -7.89190212	     -0.10729431	     14.09603529	     69.03389042	      3.61447584	     -7.41123906	     -2.74829890	     19.77804651	     66.04174260
     15.11666670	     -6.23843787	      4.02055091	     -2.63113406	      0.86985599	      1.01900032	      0.86069803	     17.40124813	     -4.04217923	      7.33741512	     59.25316505	      1.03416282	    -11.40021884	    -16.76733365	     -7.49999987	     19.62191407	      1.32927961	    -10.00476222	     22.82934658	      0.39844726	      9.57687163	     -1.74056709	     -7.49999987	      0.01429061	     -1.31139612	      4.61313725	      0.14068271	     -7.74996645	     -0.42754804	     13.60809297	     68.78583430	      3.93720426	     -7.58272628	     -3.22428299	     20.43354625	     66.12090001
     15.13333330	     -6.06365443	      4.05800458	     -2.39308705	      0.87021373	      1.01976175	      0.85771005	     19.40240796	     -4.07467274	      7.22229796	     60.58698185	      1.05744232	     -8.77791883	    -17.50472851	     -7.49999987	     18.00957738	      1.61771377	     -9.96194768	     22.16418690	      0.38683804	     10.12526283	     -1.59281332	     -7.49999987	     -0.30640838	     -1.47558384	      4.12472330	     -0.14331932	     -7.73037249	     -0.77765809	     13.47077930	     68.52041349	      4.17720481	     -7.65576791	     -3.74374904	     21.12921936	     66.19131131
     15.15000000	     -5.94915765	      3.95277366	     -2.03112567	      0.86847960	      1.02103335	      0.85456287	     21.47241334	     -4.02021453	      6.99945976	     61.30723625	      1.07001313	     -5.46964754	    -17.95935425	     -7.49999987	     16.50486602	      1.79317953	     -9.77909762	     21.40206354	      0.37353648	     10.70106918	     -1.35807632	     -7.49999987	     -0.69537764	     -1.42714591	      3.55652987	     -0.37697302	     -7.78970458	     -1.11830701	     13.49389056	     68.27508649	      4.50126646	     -7.65283488	     -4.21312420	     21.89547384	     66.23939208
     15.16666670	     -5.97465016	      3.72023703	     -1.65083181	      0.86527844	      1.02223373	      0.85179337	     23.55909912	     -3.86995966	      6.79170347	     61.17558047	      1.06771530	     -2.59954576	    -18.27915501	     -7.49999987	     15.25302046	      1.81782292	     -9.56270430	     20.63567760	      0.36016052	     11.34740076	     -1.07178413	     -7.49999987	     -0.99781944	     -1.18510919	      2.94687207	     -0.51477582	     -7.89144729	     -1.41647916	     13.65518598	     68.02033840	      4.96991939	     -7.66367910	     -4.50921090	     22.84880767	     66.19921583
     15.18333330	     -5.90879281	      3.33844231	     -1.21204039	      0.86140525	      1.02356286	      0.84948591	     25.25943637	     -3.74165482	      6.34416917	     60.12150547	      1.04931822	      0.29520702	    -17.68318816	     -7.49999987	     14.02787610	      1.66114966	     -9.39310417	     19.95200038	      0.34822810	     12.19285027	     -0.19587812	     -7.49999987	     -1.42801138	     -0.74971129	      2.28320262	     -0.52617254	     -8.07954083	     -1.39523383	     13.76958010	     68.24984770	      5.54784361	     -7.68512387	     -4.84509642	     24.40653321	     66.78573215
     15.20000000	     -6.06646068	      2.83709875	     -0.88079773	      0.85730830	      1.02478929	      0.84794667	     26.82770660	     -3.51882085	      5.83299233	     58.04908416	      1.01314765	      2.24278141	    -17.37857055	     -7.49999987	     13.13192678	      1.35836433	     -9.14237207	     19.36259459	      0.33794103	     12.89275590	      0.50587986	     -7.49999987	     -1.58782029	     -0.14646731	      1.62073326	     -0.48141372	     -8.30305315	     -1.39718030	     14.04352692	     68.44885706	      6.22339869	     -7.68420011	     -5.10391016	     25.94926792	     67.29181192
     15.21666670	     -6.30815778	      2.29976413	     -0.61297905	      0.85364412	      1.02575115	      0.84722461	     28.09992687	     -3.31703660	      5.16036455	     55.07730880	      0.96128038	      3.59243739	    -17.13577880	     -7.49999987	     12.38409552	      0.99408989	     -8.85870002	     18.85195825	      0.32902874	     13.49153473	      1.18607268	     -7.49999987	     -1.63721097	      0.48280781	      1.01819221	     -0.39340631	     -8.49277478	     -1.37000141	     14.24198032	     69.29832047	      6.95935678	     -7.68647353	     -5.34950966	     27.44074898	     68.45076604
     15.23333330	     -6.68223093	      1.76908639	     -0.33451754	      0.85105500	      1.02613077	      0.84744073	     29.16287506	     -3.18595794	      4.24520150	     51.35056019	      0.89623635	      4.59550133	    -16.67540837	     -7.49999987	     11.80920498	      0.59807397	     -8.64876168	     18.34422072	      0.32016705	     14.04935237	      2.07581078	     -7.49999987	     -1.49603701	      1.08869796	      0.42963230	     -0.31826998	     -8.55575537	     -1.56364572	     14.25929520	     69.51000264	      7.67184412	     -7.74009016	     -5.25911806	     28.71516742	     68.82475543
     15.25000000	     -7.05115740	      1.36955293	     -0.11733909	      0.84959559	      1.02562213	      0.84825090	     29.98585649	     -3.14841746	      3.31444558	     47.06227613	      0.82139167	      5.20569542	    -16.10201857	     -7.49999987	     11.20016634	      0.33967220	     -8.40633764	     17.68590722	      0.30867731	     14.48499189	      2.69664721	     -7.49999987	     -1.33972788	      1.52214221	      0.05223730	     -0.45377503	     -8.56838452	     -1.51757913	     14.46168980	     69.67525709	      8.43225140	     -7.80824042	     -5.12564443	     29.67039439	     69.00595553
